<svg width="32" height="32" viewBox="0 0 32 32" fill="none" xmlns="http://www.w3.org/2000/svg">
<path d="M28.4225 11.295L25.6075 12.375L20.0225 24.6675L10.99 30.815C10.99 30.815 17.2075 31.33 22.04 28.0475C26.8725 24.765 29.3125 20.4925 30.1125 17.02C30.91 13.5475 30.535 12.515 30.535 12.515L28.4225 11.295Z" fill="#DC0D28"/>
<path d="M20.6325 9.04248C20.6325 9.04248 18.85 9.27748 17.91 12.42C16.97 15.5625 17.4875 18.05 15.375 20.7725C13.2625 23.495 11.34 24.5275 7.9625 23.87C3.3475 22.9725 3.645 19.595 2.2375 19.4125C1.1575 19.2725 0.500004 22.745 2.1425 25.5125C3.785 28.28 6.975 30.44 10.4475 30.7675C13.92 31.095 19.9725 29.125 23.3525 23.915C26.7325 18.705 27.155 15 27.25 12.655C27.345 10.31 24.105 9.08748 24.105 9.08748L20.6325 9.04248Z" fill="#FF5117"/>
<path d="M21.525 12.48C20.75 11.8825 19.765 12.7975 19.3775 14.24C18.99 15.6825 18.955 16.915 18.745 17.6175C18.535 18.32 17.97 19.3075 18.71 19.73C19.45 20.1525 20.1875 18.78 20.47 17.725C20.7525 16.67 20.9975 15.225 21.385 14.5225C21.7725 13.82 22.135 12.95 21.525 12.48ZM18.1925 20.6325C17.395 20.35 17.23 21.0325 17.09 21.2425C16.95 21.4525 16.69 21.97 17.1375 22.2525C17.635 22.5675 18.03 22.205 18.2625 21.8525C18.4975 21.5 18.6475 20.7925 18.1925 20.6325Z" fill="#FFCB88"/>
<path d="M21.265 9.65248C21.8525 10.215 21.03 10.7775 21.4525 11.1075C21.95 11.495 23.3525 10.7075 24.5025 11.085C25.6525 11.4625 25.605 12.8225 26.45 12.915C27.295 13.01 27.27 12.21 28.42 12.375C29.57 12.54 30.11 14.04 30.6725 13.8775C31.235 13.715 30.93 11.86 29.57 10.57C28.485 9.54248 27.7625 9.32748 27.6925 8.83248C27.6225 8.33998 28.1375 6.06498 28.3025 4.93748C28.4675 3.81248 28.42 2.26248 27.0125 1.55998C25.605 0.854982 24.4075 1.51248 24.1725 1.91248C23.8875 2.39498 23.99 3.07248 25.1825 2.61748C26.285 2.19498 27.035 3.20498 26.895 4.18998C26.755 5.17498 26.0025 6.58248 25.5575 7.14748C25.1125 7.71248 24.8775 8.03998 24.5475 8.10998C24.22 8.17998 23.14 7.99248 22.13 8.03998C20.9275 8.09498 19.6675 8.69748 19.83 9.18998C19.9925 9.68248 20.8075 9.21248 21.265 9.65248Z" fill="#98B71E"/>
</svg>
